<?xml version="1.0" encoding="UTF-8" standalone="no"?>
<!-- Generator: Gravit.io -->
<svg xmlns="http://www.w3.org/2000/svg" xmlns:xlink="http://www.w3.org/1999/xlink" style="isolation:isolate" viewBox="0 0 600 475" width="600pt" preserveAspectRatio="none" height="475pt"><defs><clipPath id="_clipPath_Zb9bwmOcLKoDZfNB3Q93B1jtqOmx0KVc"><rect width="600" height="475"/></clipPath></defs><g clip-path="url(#_clipPath_Zb9bwmOcLKoDZfNB3Q93B1jtqOmx0KVc)"><path d=" M 25 429 L 21 398 L 7 376 L 12 298 L 37 251 L 6 251 L 9 191 L 0 135 L 37 122 L 0 107 L 10 56.667 L 0 33 L 0 0 L 42 9 L 60 4 L 65 5.527 L 101 11 L 157 31 L 213 20 L 274 33 L 304 23 L 325.172 48 L 358 7 L 397 16 L 451 13 L 484 3 L 567 7 L 563 37 L 587 19 L 589 55 L 574 101 L 589 133 L 577 185 L 597 244 L 566 298 L 586 349 L 576 415 L 595 448 L 580 466 L 558 468 L 504 454 L 418 463 L 390 429 L 370 464 L 277 448 L 242.281 465.757 L 213 465 L 161 455 L 116 461 L 53 448 L 5 464 L 25 429 Z " fill="none"/><path d=" M 25 429 L 21 398 L 7 376 L 12 298 L 37 251 L 6 251 L 9 191 L 0 135 L 37 122 L 0 107 L 10 56.667 L 0 33 L 0 0 L 42 9 L 60 4 L 65 5.527 L 101 11 L 157 31 L 213 20 L 274 33 L 304 23 L 325.172 48 L 358 7 L 397 16 L 451 13 L 484 3 L 567 7 L 563 37 L 587 19 L 589 55 L 574 101 L 589 133 L 577 185 L 597 244 L 566 298 L 586 349 L 576 415 L 595 448 L 580 466 L 558 468 L 504 454 L 418 463 L 390 429 L 370 464 L 277 448 L 242.281 465.757 L 213 465 L 161 455 L 116 461 L 53 448 L 5 464 L 25 429 Z " fill="none"/><path d=" M 25 429 L 21 398 L 7 376 L 12 298 L 37 251 L 6 251 L 9 191 L 0 135 L 37 122 L 0 107 L 10 56.667 L 0 33 L 0 0 L 42 9 L 60 4 L 65 5.527 L 101 11 L 157 31 L 213 20 L 274 33 L 304 23 L 325.172 48 L 358 7 L 397 16 L 451 13 L 484 3 L 567 7 L 563 37 L 587 19 L 589 55 L 574 101 L 589 133 L 577 185 L 597 244 L 566 298 L 586 349 L 576 415 L 595 448 L 580 466 L 558 468 L 504 454 L 418 463 L 390 429 L 370 464 L 277 448 L 242.281 465.757 L 213 465 L 161 455 L 116 461 L 53 448 L 5 464 L 25 429 Z " fill="rgb(231,192,124)"/><g style="isolation: isolate;"><mask id="_mask_gM4Sb47p30IL8ojUUo7QEPeKz5FVyK48"><path d=" M 25 429 L 21 398 L 7 376 L 12 298 L 37 251 L 6 251 L 9 191 L 0 135 L 37 122 L 0 107 L 10 56.667 L 0 33 L 0 0 L 42 9 L 60 4 L 65 5.527 L 101 11 L 157 31 L 213 20 L 274 33 L 304 23 L 325.172 48 L 358 7 L 397 16 L 451 13 L 484 3 L 567 7 L 563 37 L 587 19 L 589 55 L 574 101 L 589 133 L 577 185 L 597 244 L 566 298 L 586 349 L 576 415 L 595 448 L 580 466 L 558 468 L 504 454 L 418 463 L 390 429 L 370 464 L 277 448 L 242.281 465.757 L 213 465 L 161 455 L 116 461 L 53 448 L 5 464 L 25 429 Z " fill="white" stroke="none"/></mask><path d=" M 25 429 L 21 398 L 7 376 L 12 298 L 37 251 L 6 251 L 9 191 L 0 135 L 37 122 L 0 107 L 10 56.667 L 0 33 L 0 0 L 42 9 L 60 4 L 65 5.527 L 101 11 L 157 31 L 213 20 L 274 33 L 304 23 L 325.172 48 L 358 7 L 397 16 L 451 13 L 484 3 L 567 7 L 563 37 L 587 19 L 589 55 L 574 101 L 589 133 L 577 185 L 597 244 L 566 298 L 586 349 L 576 415 L 595 448 L 580 466 L 558 468 L 504 454 L 418 463 L 390 429 L 370 464 L 277 448 L 242.281 465.757 L 213 465 L 161 455 L 116 461 L 53 448 L 5 464 L 25 429 Z " fill="none" mask="url(#_mask_gM4Sb47p30IL8ojUUo7QEPeKz5FVyK48)" vector-effect="non-scaling-stroke" stroke-width="16" stroke="rgb(221,173,109)" stroke-linejoin="miter" stroke-linecap="square" stroke-miterlimit="3"/><mask id="_mask_ao1FvRptgNxvYmPemMlONyvfqwwHgLPz"><path d=" M 25 429 L 21 398 L 7 376 L 12 298 L 37 251 L 6 251 L 9 191 L 0 135 L 37 122 L 0 107 L 10 56.667 L 0 33 L 0 0 L 42 9 L 60 4 L 65 5.527 L 101 11 L 157 31 L 213 20 L 274 33 L 304 23 L 325.172 48 L 358 7 L 397 16 L 451 13 L 484 3 L 567 7 L 563 37 L 587 19 L 589 55 L 574 101 L 589 133 L 577 185 L 597 244 L 566 298 L 586 349 L 576 415 L 595 448 L 580 466 L 558 468 L 504 454 L 418 463 L 390 429 L 370 464 L 277 448 L 242.281 465.757 L 213 465 L 161 455 L 116 461 L 53 448 L 5 464 L 25 429 Z " fill="white" stroke="none"/></mask><path d=" M 25 429 L 21 398 L 7 376 L 12 298 L 37 251 L 6 251 L 9 191 L 0 135 L 37 122 L 0 107 L 10 56.667 L 0 33 L 0 0 L 42 9 L 60 4 L 65 5.527 L 101 11 L 157 31 L 213 20 L 274 33 L 304 23 L 325.172 48 L 358 7 L 397 16 L 451 13 L 484 3 L 567 7 L 563 37 L 587 19 L 589 55 L 574 101 L 589 133 L 577 185 L 597 244 L 566 298 L 586 349 L 576 415 L 595 448 L 580 466 L 558 468 L 504 454 L 418 463 L 390 429 L 370 464 L 277 448 L 242.281 465.757 L 213 465 L 161 455 L 116 461 L 53 448 L 5 464 L 25 429 Z " fill="none" mask="url(#_mask_ao1FvRptgNxvYmPemMlONyvfqwwHgLPz)" vector-effect="non-scaling-stroke" stroke-width="8" stroke="rgb(60,31,14)" stroke-linejoin="miter" stroke-linecap="square" stroke-miterlimit="3"/></g></g></svg>